<svg xmlns="http://www.w3.org/2000/svg" xmlns:xlink="http://www.w3.org/1999/xlink" width="150" height="150" viewBox="0 0 150 150"><defs><clipPath id="a"><rect width="150" height="150" transform="translate(230 500)" fill="#18ff00"/></clipPath></defs><g transform="translate(-230 -500)" clip-path="url(#a)"><g transform="translate(230 500)"><path d="M0,0H150V150H0Z" fill="none"/><path d="M61.425,31.25l-12.5,12.5H25v75H125v-75H101.075l-12.5-12.5ZM56.25,18.75h37.5l12.5,12.5h25a6.25,6.25,0,0,1,6.25,6.25V125a6.25,6.25,0,0,1-6.25,6.25H18.75A6.25,6.25,0,0,1,12.5,125V37.5a6.25,6.25,0,0,1,6.25-6.25h25ZM75,112.5a34.375,34.375,0,1,1,34.375-34.375A34.375,34.375,0,0,1,75,112.5ZM75,100A21.875,21.875,0,1,0,53.125,78.125,21.875,21.875,0,0,0,75,100Z" fill="#18ff00"/></g></g></svg>