<svg xmlns="http://www.w3.org/2000/svg" xmlns:xlink="http://www.w3.org/1999/xlink" width="24" height="24" viewBox="0 0 24 24"><defs><style>.a{fill:#fff;}.b{clip-path:url(#a);}.c{fill:none;}</style><clipPath id="a"><rect class="a" width="24" height="24" transform="translate(140 2083)"/></clipPath></defs><g class="b" transform="translate(-140 -2083)"><g transform="translate(140 2083)"><path class="c" d="M0,0H24V24H0Z"/><path class="a" d="M12,2.5v2h6v-2h2v2h4a1,1,0,0,1,1,1v16a1,1,0,0,1-1,1H6a1,1,0,0,1-1-1V5.5a1,1,0,0,1,1-1h4v-2Zm11,9H7v9H23Zm-4.964,1.136L19.45,14.05,14.5,19l-3.536-3.536L12.38,14.05,14.5,16.172l3.536-3.536ZM10,6.5H7v3H23v-3H20v1H18v-1H12v1H10Z" transform="translate(-3 -1.5)"/></g></g></svg>