<svg xmlns="http://www.w3.org/2000/svg" xmlns:xlink="http://www.w3.org/1999/xlink" width="24" height="24" viewBox="0 0 24 24"><defs><style>.a{fill:#fff;}.b{clip-path:url(#a);}</style><clipPath id="a"><rect class="a" width="24" height="24" transform="translate(140 2543)"/></clipPath></defs><g class="b" transform="translate(-140 -2543)"><g transform="translate(140.48 2543)"><path class="a" d="M21.12,7.2a13.9,13.9,0,0,0-5.19,1.05L15,8.64l.45.9,1.53,3.03c-2.047,1.207-7.38,4.9-7.38,10.95,0,2.835.919,4.987,2.91,6.18s4.781,1.5,8.61,1.5,6.619-.307,8.61-1.5,2.91-3.345,2.91-6.18c0-3.945-2.3-6.9-4.47-8.82a7.926,7.926,0,0,1,2.79,1.8l1.44-1.32a11.856,11.856,0,0,0-6.9-3.09l1.29-2.55.45-.9-.93-.39A13.9,13.9,0,0,0,21.12,7.2Zm0,1.92a10.938,10.938,0,0,1,3.45.54L23.4,12H18.84L17.67,9.66A10.937,10.937,0,0,1,21.12,9.12Zm-2.58,4.8H23.7c.236.124,7.02,3.7,7.02,9.6,0,2.467-.574,3.686-1.98,4.53s-3.911,1.23-7.62,1.23-6.214-.386-7.62-1.23-1.98-2.063-1.98-4.53C11.52,17.621,18.3,14.044,18.54,13.92Zm1.62,1.92v1.14a2.9,2.9,0,0,0-1.92,2.7,2.535,2.535,0,0,0,.93,1.89,7.61,7.61,0,0,0,1.53.9,7.233,7.233,0,0,1,1.14.66c.233.191.24.244.24.39a.982.982,0,0,1-.96.96.943.943,0,0,1-.96-.96H18.24a2.89,2.89,0,0,0,1.92,2.7v1.14h1.92V26.22A2.9,2.9,0,0,0,24,23.52a2.49,2.49,0,0,0-.96-1.86,7.424,7.424,0,0,0-1.5-.9,6.227,6.227,0,0,1-1.11-.66c-.233-.195-.27-.259-.27-.42a.967.967,0,0,1,.96-.96.943.943,0,0,1,.96.96H24a2.89,2.89,0,0,0-1.92-2.7V15.84Z" transform="translate(-9.6 -7.2)"/></g></g></svg>