<svg xmlns="http://www.w3.org/2000/svg" xmlns:xlink="http://www.w3.org/1999/xlink" width="24" height="24" viewBox="0 0 24 24"><defs><style>.a,.d{fill:#13161a;}.a{stroke:#18ff00;stroke-width:3px;}.b{clip-path:url(#a);}.c{fill:none;}</style><clipPath id="a"><rect class="a" width="24" height="24" transform="translate(893 455)"/></clipPath></defs><g class="b" transform="translate(-893 -455)"><g transform="translate(893 455)"><path class="c" d="M0,0H24V24H0Z"/><path class="d" d="M21.667,16.169v2.09a6,6,0,0,0-8,5.658h-2a8,8,0,0,1,10-7.748Zm-2-1.252a6,6,0,1,1,6-6A6,6,0,0,1,19.667,14.917Zm0-2a4,4,0,1,0-4-4A4,4,0,0,0,19.667,12.917Zm6,6v-3h2v3h3v2h-3v3h-2v-3h-3v-2Z" transform="translate(-7.667 -1.917)"/></g></g></svg>