<svg xmlns="http://www.w3.org/2000/svg" xmlns:xlink="http://www.w3.org/1999/xlink" width="24" height="24" viewBox="0 0 24 24"><defs><style>.a,.d{fill:#fff;}.a{stroke:#dd4b39;stroke-width:3px;}.b{clip-path:url(#a);}.c{fill:none;}</style><clipPath id="a"><rect class="a" width="24" height="24" transform="translate(-0.313 0.274)"/></clipPath></defs><g class="b" transform="translate(0.313 -0.274)"><g transform="translate(0.028 -0.025)"><path class="c" d="M0,0H23.957V23.957H0Z"/><path class="d" d="M7.729,12.167a9.978,9.978,0,0,1,8.92-5.5,9.585,9.585,0,0,1,6.678,2.6L20.465,12.13a5.4,5.4,0,0,0-3.816-1.493,6.014,6.014,0,1,0,3.38,11.071A4.592,4.592,0,0,0,22.021,18.7H16.649V14.834h9.4a11.478,11.478,0,0,1,.182,2.041,9.729,9.729,0,0,1-2.977,7.337,9.525,9.525,0,0,1-6.606,2.419,9.983,9.983,0,0,1-8.92-14.464Z" transform="translate(-4.67 -4.67)"/></g></g></svg>