<svg xmlns="http://www.w3.org/2000/svg" xmlns:xlink="http://www.w3.org/1999/xlink" width="24" height="24" viewBox="0 0 24 24"><defs><style>.a{fill:#fff;}.b{clip-path:url(#a);}.c{fill:none;}</style><clipPath id="a"><rect class="a" width="24" height="24" transform="translate(140 1853)"/></clipPath></defs><g class="b" transform="translate(-140 -1853)"><g transform="translate(140 1853)"><path class="c" d="M0,0H24V24H0Z"/><path class="a" d="M20,4.5h4a1,1,0,0,1,1,1v16a1,1,0,0,1-1,1H6a1,1,0,0,1-1-1V5.5a1,1,0,0,1,1-1h4v-2h2v2h6v-2h2Zm-2,2H12v2H10v-2H7v4H23v-4H20v2H18Zm5,6H7v8H23Z" transform="translate(-3 -1.5)"/></g></g></svg>