<svg xmlns="http://www.w3.org/2000/svg" xmlns:xlink="http://www.w3.org/1999/xlink" width="24" height="24" viewBox="0 0 24 24"><defs><style>.a,.d{fill:#18ff00;}.a{stroke:#18ff00;stroke-width:3px;}.b{clip-path:url(#a);}.c{fill:none;}</style><clipPath id="a"><rect class="a" width="24" height="24" transform="translate(163 455)"/></clipPath></defs><g class="b" transform="translate(-163 -455)"><g transform="translate(163 455)"><path class="c" d="M0,0H24V24H0Z"/><path class="d" d="M5.833,14.744a5.99,5.99,0,0,1,6-5.994h8a6,6,0,0,1,6,5.994V26.75h-14a6,6,0,0,1-6-5.994Zm18,10.006V14.744a4,4,0,0,0-4-3.994h-8a3.99,3.99,0,0,0-4,3.994v6.012a4,4,0,0,0,4,3.994Zm-6-8h2v2h-2Zm-6,0h2v2h-2Z" transform="translate(-3.833 -5.75)"/></g></g></svg>