<svg xmlns="http://www.w3.org/2000/svg" xmlns:xlink="http://www.w3.org/1999/xlink" width="80" height="80" viewBox="0 0 80 80"><defs><style>.a,.d{fill:#b3b3b3;}.a{stroke:#707070;}.b{clip-path:url(#a);}.c{fill:none;}</style><clipPath id="a"><rect class="a" width="80" height="80" transform="translate(523 2216)"/></clipPath></defs><g class="b" transform="translate(-523 -2216)"><g transform="translate(523 2216)"><path class="c" d="M0,0H80V80H0Z"/><path class="d" d="M6.667,29.98a19.967,19.967,0,0,1,20-19.98H53.333a20.016,20.016,0,0,1,20,19.98V70H26.667a20.016,20.016,0,0,1-20-19.98Zm60,33.353V29.98A13.347,13.347,0,0,0,53.333,16.667H26.667A13.3,13.3,0,0,0,13.333,29.98V50.02A13.347,13.347,0,0,0,26.667,63.333Zm-20-26.667h6.667v6.667H46.667Zm-20,0h6.667v6.667H26.667Z"/></g></g></svg>