<svg xmlns="http://www.w3.org/2000/svg" xmlns:xlink="http://www.w3.org/1999/xlink" width="80" height="80" viewBox="0 0 80 80"><defs><style>.a,.d{fill:#b3b3b3;}.a{stroke:#707070;}.b{clip-path:url(#a);}.c{fill:none;}</style><clipPath id="a"><rect class="a" width="80" height="80" transform="translate(898 2216)"/></clipPath></defs><g class="b" transform="translate(-898 -2216)"><g transform="translate(898 2216)"><path class="c" d="M0,0H80V80H0Z"/><path class="d" d="M40,56.667c12.207,0,22.883,5.25,28.69,13.083l-6.14,2.9c-4.727-5.6-13.06-9.32-22.55-9.32s-17.823,3.72-22.55,9.32l-6.137-2.907C17.12,61.913,27.793,56.667,40,56.667Zm0-50A16.667,16.667,0,0,1,56.667,23.333v10a16.666,16.666,0,0,1-15.942,16.65L40,50A16.667,16.667,0,0,1,23.333,33.333v-10A16.666,16.666,0,0,1,39.276,6.683Zm0,6.667a10,10,0,0,0-9.983,9.414L30,23.333v10a10,10,0,0,0,19.983.587L50,33.333v-10a10,10,0,0,0-10-10Z"/></g></g></svg>