<svg xmlns="http://www.w3.org/2000/svg" xmlns:xlink="http://www.w3.org/1999/xlink" width="100" height="100" viewBox="0 0 100 100"><defs><clipPath id="a"><rect width="100" height="100" transform="translate(513 340)" fill="#2b3038"/></clipPath><linearGradient id="b" x1="0.514" y1="0.999" x2="0.508" y2="0.8" gradientUnits="objectBoundingBox"><stop offset="0" stop-color="#ffb92d"/><stop offset="1" stop-color="#f59500"/></linearGradient><linearGradient id="c" x1="0.544" y1="0.884" x2="0.527" y2="0.725" xlink:href="#b"/><linearGradient id="d" x1="0.497" y1="2.381" x2="0.497" y2="2.115" gradientUnits="objectBoundingBox"><stop offset="0" stop-color="#a7f3ce"/><stop offset="1" stop-color="#61db99"/></linearGradient><linearGradient id="e" x1="0.497" y1="1.192" x2="0.497" y2="0.334" gradientUnits="objectBoundingBox"><stop offset="0" stop-color="#ff4c54"/><stop offset="1" stop-color="#be3f45"/></linearGradient><linearGradient id="f" x1="0.497" y1="0.009" x2="0.497" y2="-0.849" xlink:href="#e"/><linearGradient id="g" x1="0.595" y1="0.09" x2="0.113" y2="0.09" gradientUnits="objectBoundingBox"><stop offset="0" stop-color="#be3f45" stop-opacity="0"/><stop offset="1" stop-color="#be3f45"/></linearGradient><linearGradient id="h" x1="0.328" y1="0.312" x2="0.748" y2="0.118" xlink:href="#b"/><linearGradient id="i" x1="0.484" y1="-2.152" x2="0.467" y2="-2.526" xlink:href="#g"/><linearGradient id="j" x1="0.488" y1="14.281" x2="0.488" y2="-6.552" gradientUnits="objectBoundingBox"><stop offset="0" stop-color="#fff465"/><stop offset="1" stop-color="#ffe600"/></linearGradient><linearGradient id="k" x1="0.497" y1="0.68" x2="0.497" y2="-0.33" xlink:href="#j"/><linearGradient id="l" x1="0.486" y1="-3.309" x2="0.486" y2="-23.828" xlink:href="#j"/><linearGradient id="m" x1="0.754" y1="-1.086" x2="-0.167" y2="-0.458" xlink:href="#g"/><linearGradient id="n" x1="0.478" y1="-1.436" x2="0.478" y2="-2.157" xlink:href="#e"/><linearGradient id="o" x1="0.469" y1="-3.071" x2="0.469" y2="-2.351" xlink:href="#e"/><linearGradient id="p" x1="-4.368" y1="7.43" x2="-3.372" y2="3.032" xlink:href="#d"/><linearGradient id="q" x1="-4.375" y1="7.43" x2="-3.379" y2="3.031" xlink:href="#d"/><linearGradient id="r" x1="-4.762" y1="5.504" x2="-3.766" y2="1.105" xlink:href="#d"/><linearGradient id="s" x1="-4.769" y1="5.504" x2="-3.773" y2="1.105" xlink:href="#d"/></defs><g transform="translate(-513 -340)" clip-path="url(#a)"><g transform="translate(513 340)"><path d="M88.141,91.691H11.859A7.362,7.362,0,0,1,4.5,84.329V20.81a7.362,7.362,0,0,1,7.362-7.362H88.141A7.362,7.362,0,0,1,95.5,20.81v63.52A7.362,7.362,0,0,1,88.141,91.691Z" fill="url(#b)"/><path d="M86.44,89.946H13.56a7.033,7.033,0,0,1-7.033-7.033V22.226a7.033,7.033,0,0,1,7.033-7.033H86.44a7.033,7.033,0,0,1,7.033,7.033V82.913A7.033,7.033,0,0,1,86.44,89.946Z" fill="url(#c)"/><path d="M90.571,33.994,72.222,2.214A4.426,4.426,0,0,0,66.176.594L8.324,33.994Z" fill="url(#d)"/><path d="M4.5,59.572H95.5v-24.1a5.509,5.509,0,0,0-5.509-5.509H10.006A5.509,5.509,0,0,0,4.5,35.468Z" fill="url(#e)"/><path d="M4.5,50.507V84.329a7.362,7.362,0,0,0,7.362,7.362H88.141A7.362,7.362,0,0,0,95.5,84.329V50.507a4.547,4.547,0,0,0-4.547-4.547H9.044A4.547,4.547,0,0,0,4.5,50.507Z" fill="url(#f)"/><path d="M81.773,33.062V91.691h6.368A7.362,7.362,0,0,0,95.5,84.33V46.792Z" fill="url(#g)"/><path d="M75.566,99.945l-63.884-7.42A8.122,8.122,0,0,1,4.5,84.458v-64.2a2.718,2.718,0,0,0,2.4,2.7l70.539,8.193a8.122,8.122,0,0,1,7.185,8.067V91.878A8.121,8.121,0,0,1,75.566,99.945Z" fill="url(#h)"/><path d="M75.566,87.122,11.682,79.7A8.122,8.122,0,0,1,4.5,71.635V84.458a8.121,8.121,0,0,0,7.185,8.067l63.884,7.42a8.121,8.121,0,0,0,9.058-8.067V79.055A8.122,8.122,0,0,1,75.566,87.122Z" fill="url(#i)"/><path d="M10.225,30.267a1.521,1.521,0,0,1-.162-.009l-2.923-.321a1.471,1.471,0,0,1,.321-2.923l2.923.321a1.471,1.471,0,0,1-.159,2.932Z" fill="url(#j)"/><path d="M70.3,95.1a1.525,1.525,0,0,1-.187-.012l-5.682-.722a1.471,1.471,0,0,1,.371-2.918l5.682.722A1.471,1.471,0,0,1,70.3,95.1Zm5.593-.728a1.471,1.471,0,0,1-.628-2.8,5.8,5.8,0,0,0,3.079-3.2,1.471,1.471,0,1,1,2.777.97,8.632,8.632,0,0,1-4.6,4.89A1.466,1.466,0,0,1,75.889,94.372Zm-16.956-.717a1.525,1.525,0,0,1-.187-.012l-5.682-.722A1.471,1.471,0,1,1,53.434,90l5.682.722a1.471,1.471,0,0,1-.184,2.93ZM47.569,92.21a1.527,1.527,0,0,1-.187-.012L41.7,91.475a1.471,1.471,0,0,1,.371-2.918l5.682.722a1.471,1.471,0,0,1-.184,2.93ZM36.205,90.765a1.528,1.528,0,0,1-.188-.012l-5.682-.723a1.471,1.471,0,0,1,.371-2.918l5.682.723a1.471,1.471,0,0,1-.184,2.93ZM24.842,89.32a1.527,1.527,0,0,1-.187-.012l-5.682-.723a1.471,1.471,0,0,1,.371-2.918l5.682.723a1.471,1.471,0,0,1-.184,2.93Zm55.216-4.683a1.47,1.47,0,0,1-1.471-1.471V77.439a1.471,1.471,0,0,1,2.941,0v5.728A1.47,1.47,0,0,1,80.058,84.637Zm0-11.455a1.47,1.47,0,0,1-1.471-1.471V65.984a1.471,1.471,0,0,1,2.941,0v5.728A1.47,1.47,0,0,1,80.058,73.182Zm0-11.455a1.47,1.47,0,0,1-1.471-1.471V54.529a1.471,1.471,0,0,1,2.941,0v5.728A1.47,1.47,0,0,1,80.058,61.727Zm0-11.455A1.47,1.47,0,0,1,78.587,48.8V43.074a1.471,1.471,0,1,1,2.941,0V48.8A1.47,1.47,0,0,1,80.058,50.272ZM78,39.4A1.466,1.466,0,0,1,76.99,39a7.209,7.209,0,0,0-4.26-1.853l-.039,0a1.471,1.471,0,0,1,.315-2.924l.025,0a10.151,10.151,0,0,1,5.982,2.644A1.471,1.471,0,0,1,78,39.4ZM67.157,36.526a1.52,1.52,0,0,1-.162-.009L61.3,35.891a1.471,1.471,0,0,1,.321-2.923l5.693.626a1.471,1.471,0,0,1-.159,2.932ZM55.771,35.274a1.521,1.521,0,0,1-.162-.009l-5.693-.626a1.471,1.471,0,0,1,.321-2.923l5.693.626a1.471,1.471,0,0,1-.159,2.932ZM44.384,34.022a1.52,1.52,0,0,1-.162-.009l-5.693-.626a1.471,1.471,0,1,1,.321-2.923l5.693.626a1.471,1.471,0,0,1-.159,2.932ZM33,32.771a1.521,1.521,0,0,1-.162-.009l-5.693-.626a1.471,1.471,0,0,1,.321-2.923l5.693.626A1.471,1.471,0,0,1,33,32.771ZM21.611,31.519a1.521,1.521,0,0,1-.162-.009l-5.693-.626a1.471,1.471,0,0,1,.321-2.923l5.693.626a1.471,1.471,0,0,1-.159,2.932Z" fill="url(#k)"/><path d="M13.464,87.872a1.486,1.486,0,0,1-.187-.012l-2.918-.371a1.471,1.471,0,1,1,.371-2.918l2.918.371a1.471,1.471,0,0,1-.184,2.93Z" fill="url(#l)"/><path d="M67.494,10.951l-9.412,5.121a2.527,2.527,0,0,1-3.428-1.012h0a2.527,2.527,0,0,1,1.012-3.428l9.412-5.121a2.527,2.527,0,0,1,3.428,1.012h0A2.527,2.527,0,0,1,67.494,10.951Z" fill="#61db99"/><path d="M84.624,71.059l-9.34-9.34A7.209,7.209,0,1,0,65.1,71.9L84.624,91.429V71.059Z" fill="url(#m)"/><circle cx="7.209" cy="7.209" r="7.209" transform="translate(62.763 59.383)" fill="url(#n)"/><circle cx="4.975" cy="4.975" r="4.975" transform="translate(64.997 61.617)" fill="url(#o)"/><circle cx="1.029" cy="1.029" r="1.029" transform="translate(67.053 63.673)" fill="url(#p)"/><circle cx="1.029" cy="1.029" r="1.029" transform="translate(70.833 63.673)" fill="url(#q)"/><circle cx="1.029" cy="1.029" r="1.029" transform="translate(67.053 67.455)" fill="url(#r)"/><circle cx="1.029" cy="1.029" r="1.029" transform="translate(70.833 67.455)" fill="url(#s)"/></g></g></svg>