<svg xmlns="http://www.w3.org/2000/svg" xmlns:xlink="http://www.w3.org/1999/xlink" width="24" height="24" viewBox="0 0 24 24"><defs><style>.a{fill:#fff;}.b{clip-path:url(#a);}</style><clipPath id="a"><rect class="a" width="24" height="24" transform="translate(140 2773)"/></clipPath></defs><g class="b" transform="translate(-140 -2773)"><g transform="translate(140.016 2773)"><path class="a" d="M23.047,10a3.992,3.992,0,0,0-1.969,7.469,4.715,4.715,0,0,0-.031.531,5,5,0,1,0,5.875-4.937A3.994,3.994,0,0,0,23.047,10Zm0,2a1.985,1.985,0,0,1,1.813,1.156,5.037,5.037,0,0,0-3.094,2.313A1.89,1.89,0,0,1,21.047,14,1.984,1.984,0,0,1,23.047,12Zm3,3a3,3,0,1,1-3,3A2.986,2.986,0,0,1,26.047,15Zm-8.531,7a24.276,24.276,0,0,0-7.438,1.75l.75,1.875S15.125,24,17.516,24a10.769,10.769,0,0,1,3.969,1.281,17.837,17.837,0,0,1,1.719,1c.223.148.41.281.531.375a1.2,1.2,0,0,1,.125.125l.156.219a.751.751,0,0,1-.937.969h-.031L18.7,25.875l-.844,1.813L22.3,29.813h.031l.063.031a2.746,2.746,0,0,0,3.156-1,2.655,2.655,0,0,0,.438-1.875l4.813-.812a1.071,1.071,0,0,1,1.188.75,1.047,1.047,0,0,1-.594,1.313c-1.465.645-3.82,1.609-5.937,2.406-1.059.4-2.07.75-2.844,1-.387.125-.723.219-.969.281S21.2,32,21.3,32a7.658,7.658,0,0,1-.812-.344c-.473-.254-1.066-.625-1.656-1s-1.2-.754-1.781-1.062A3.712,3.712,0,0,0,15.234,29a8.838,8.838,0,0,0-3.094.625l.781,1.844A7.634,7.634,0,0,1,15.234,31a4.53,4.53,0,0,1,.875.344c.477.254,1.066.625,1.656,1s1.18.754,1.75,1.063A3.548,3.548,0,0,0,21.3,34a2.86,2.86,0,0,0,.844-.156c.309-.082.684-.18,1.094-.312.82-.266,1.828-.625,2.906-1.031,2.152-.809,4.539-1.766,6.063-2.437a3.089,3.089,0,0,0-1.75-5.875l-5.469.906s-.023,0-.031,0c-.031-.024-.062-.07-.094-.094l-.281-.219v.031c-.086-.062-.149-.121-.25-.187A20.5,20.5,0,0,0,22.391,23.5,11.418,11.418,0,0,0,17.516,22Z" transform="translate(-10.078 -10)"/></g></g></svg>